<?xml version="1.0" standalone="no"?><!DOCTYPE svg PUBLIC "-//W3C//DTD SVG 1.1//EN" "http://www.w3.org/Graphics/SVG/1.1/DTD/svg11.dtd"><svg t="1663640175079" class="icon" viewBox="0 0 1024 1024" version="1.1" xmlns="http://www.w3.org/2000/svg" p-id="4466" xmlns:xlink="http://www.w3.org/1999/xlink" width="128" height="128"><path d="M859.2 845.4H188c-16.6 0-30-13.4-30-30V454.6c0-8.2 5.8-15.6 13.6-17.4 3.2-0.8 6.4 1.2 7.2 4.4 0.8 3.2-1.2 6.4-4.4 7.2-2.6 0.6-4.4 3-4.4 5.8v360.8c0 10 8 18 18 18h671.2c10 0 18-8 18-18V454.6c0-2.6-1.8-5-4.4-5.8-3.2-0.8-5-4.2-4.2-7.4 0.8-3.2 4.2-5 7.4-4.2 7.8 2.2 13.2 9.4 13.2 17.4v360.8c0 16.6-13.4 30-30 30z" fill="#2C3AC4" p-id="4467"></path><path d="M593 647c-2 0-3.8-1-5-2.6-1.8-2.8-1.2-6.4 1.6-8.4l280.8-192.8c2.8-1.8 6.4-1.2 8.4 1.6 1.8 2.8 1.2 6.4-1.6 8.4L596.4 646c-1 0.6-2.2 1-3.4 1zM451.6 647c-1.2 0-2.4-0.4-3.4-1l-280-192.2c-2.8-1.8-3.4-5.6-1.6-8.4 1.8-2.8 5.6-3.4 8.4-1.6l280 192.2c2.8 1.8 3.4 5.6 1.6 8.4-1.2 1.6-3 2.6-5 2.6z" fill="#2C3AC4" p-id="4468"></path><path d="M366.6 583.4L161.4 809.8l15.2 23.6 276.8-190.2zM676.2 584.6l205.2 226.4-15 23.6-277-190.2z" fill="#FFDEF1" p-id="4469"></path><path d="M872 841.6c-1.2 0-2.4-0.4-3.4-1L590 649.2c-2.8-1.8-3.4-5.6-1.6-8.4 1.8-2.8 5.6-3.4 8.4-1.6l278.6 191.4c2.8 1.8 3.4 5.6 1.6 8.4-1.2 1.6-3 2.6-5 2.6z" fill="#2C3AC4" p-id="4470"></path><path d="M244.8 496.6V253.8c0-2.8 1.8-5.2 4.2-5.2h465.6l87.2 78c-0.2 57.4-0.8 172-0.8 172l-278.6 180.4-277.6-182.4z" fill="#E1FFFB" p-id="4471"></path><path d="M683.8 354.8c5 6 8.6 13.2 9.8 21.4 3.8 24-12.6 46.4-36.4 50.2-14.6 2.4-28.6-2.8-38.2-12.8M607.6 409c-6 4.6-13 7.6-21 8.8-25.8 4-49.8-13.4-54-39.2-2.2-14.4 2.2-28.4 11.2-38.6M606.2 282.2c4.8-2.2 10.2-4 15.8-4.8 32-5 61.8 16.8 67 48.6 1.6 9.8 0.6 19.6-2.6 28.4" fill="#FFB3E2" p-id="4472"></path><path d="M569.2 359.8c-14.4-4.8-25.8-17.4-28.4-33.4-3.6-23 12-44.6 35.2-48.4 18.4-2.8 35.8 6.4 44 22M661 381.4c-4.6 13-15.2 23.6-29.6 27.2-23 6-46.2-7.8-52.2-30.6" fill="#FFB3E2" p-id="4473"></path><path d="M647.8 326c15-2.4 29.2 7.8 31.6 23s-8 29.2-23 31.6c-12.8 2-25-5.2-29.8-16.6" fill="#FFB3E2" p-id="4474"></path><path d="M575.8 339c-3-18.6 9.8-36.2 28.4-39s36 9.8 39 28.4c2.2 13.4-3.8 26.2-14.2 33.4" fill="#FFB3E2" p-id="4475"></path><path d="M616.6 367.8c-3 7.8-10 14-19 15.4-13.2 2.2-25.8-7-27.8-20.2s7-25.8 20.2-27.8c6.6-1 13 0.8 18.2 4.4" fill="#FFB3E2" p-id="4476"></path><path d="M620.2 350m-13 0a13 13 0 1 0 26 0 13 13 0 1 0-26 0Z" fill="#FFB3E2" p-id="4477"></path><path d="M657.4 596.6c-2.2 0-4.4-1.2-5.4-3.4-1-2-24.2-48.6-34.4-97.6-10-48.8-10.8-81.2-11-82.6 0-3.4 2.6-6 5.8-6.2h0.2c3.2 0 6 2.6 6 5.8 0 0.4 1 33 10.6 80.6 9.8 47.4 33 94.2 33.2 94.8 1.4 3 0.2 6.6-2.6 8-0.6 0.4-1.4 0.6-2.4 0.6z" fill="#2C3AC4" p-id="4478"></path><path d="M702.8 519c-18.8 30.4-60.8 38.6-60.8 38.6s-11.6-41.2 7.2-71.6 60.8-38.6 60.8-38.6 11.4 41.2-7.2 71.6z" fill="#07B1AE" p-id="4479"></path><path d="M612.8 460.4c-1.6 0-3.2-0.6-4.4-2l-15.8-17.2c-2.2-2.4-2-6.2 0.4-8.4s6.2-2 8.4 0.4l15.8 17.2c2.2 2.4 2 6.2-0.4 8.4-1 1-2.6 1.6-4 1.6zM621.4 487.6c-1 0-2.2-0.2-3-0.8-2.8-1.8-3.8-5.4-2-8.2l8.8-14.6c1.8-2.8 5.4-3.8 8.2-2 2.8 1.8 3.8 5.4 2 8.2l-8.8 14.6c-1.2 1.8-3.2 2.8-5.2 2.8z" fill="#2C3AC4" p-id="4480"></path><path d="M621.4 500.8c-1 0-2-0.2-3-0.8l-14.6-8.6c-2.8-1.6-3.8-5.4-2.2-8.2 1.6-2.8 5.4-3.8 8.2-2.2l14.6 8.6c2.8 1.6 3.8 5.4 2.2 8.2-1.2 2-3.2 3-5.2 3z" fill="#2C3AC4" p-id="4481"></path><path d="M453.6 338.6h-142c-3.4 0-6-2.6-6-6s2.6-6 6-6h142c3.4 0 6 2.6 6 6s-2.6 6-6 6z" fill="#2C3AC4" p-id="4482"></path><path d="M453.6 408h-142c-3.4 0-6-2.6-6-6s2.6-6 6-6h142c3.4 0 6 2.6 6 6s-2.6 6-6 6z" fill="#2C3AC4" p-id="4483"></path><path d="M531.6 477.2H311.8c-3.4 0-6-2.6-6-6s2.6-6 6-6h219.8c3.4 0 6 2.6 6 6s-2.6 6-6 6z" fill="#2C3AC4" p-id="4484"></path><path d="M569.6 546.6H311.8c-3.4 0-6-2.6-6-6s2.6-6 6-6h257.8c3.4 0 6 2.6 6 6s-2.6 6-6 6z" fill="#2C3AC4" p-id="4485"></path><path d="M842.8 224c-3.4 0-6-2.6-6-6v-12c0-3.4 2.6-6 6-6s6 2.6 6 6v12c0 3.4-2.6 6-6 6zM842.8 296c-3.4 0-6-2.6-6-6v-12c0-3.4 2.6-6 6-6s6 2.6 6 6v12c0 3.4-2.6 6-6 6zM812.8 254h-12c-3.4 0-6-2.6-6-6s2.6-6 6-6h12c3.4 0 6 2.6 6 6s-2.6 6-6 6zM884.8 254h-12c-3.4 0-6-2.6-6-6s2.6-6 6-6h12c3.4 0 6 2.6 6 6s-2.6 6-6 6z" fill="#2C3AC4" p-id="4486"></path><path d="M821.6 232.8c-1.6 0-3-0.6-4.2-1.8l-8.6-8.4c-2.4-2.4-2.4-6.2-0.2-8.4 2.4-2.4 6.2-2.4 8.4 0l8.6 8.4c2.4 2.4 2.4 6.2 0 8.4-0.8 1.2-2.4 1.8-4 1.8zM872.4 283.8c-1.6 0-3.2-0.6-4.2-1.8l-8.4-8.6c-2.4-2.4-2.2-6.2 0-8.4 2.4-2.4 6.2-2.2 8.4 0l8.4 8.6c2.4 2.4 2.2 6.2 0 8.4-1.2 1.2-2.6 1.8-4.2 1.8zM813 283.8c-1.6 0-3-0.6-4.2-1.8-2.4-2.4-2.4-6.2 0-8.4l8.6-8.6c2.4-2.4 6.2-2.4 8.4 0 2.4 2.4 2.4 6.2 0 8.4l-8.6 8.6c-1.2 1.2-2.6 1.8-4.2 1.8zM864 232.8c-1.6 0-3-0.6-4.2-1.8-2.4-2.4-2.4-6.2 0-8.4l8.4-8.4c2.4-2.4 6.2-2.4 8.4 0 2.4 2.4 2.4 6.2 0 8.4l-8.4 8.4c-1.2 1.2-2.6 1.8-4.2 1.8z" fill="#2C3AC4" p-id="4487"></path><path d="M573 334.8l13-30.2 24.8-5.2 27.6 12.8 2.6 13.4 23.2 1 13.6 17.6v19.2l-12.8 12.8-8.6 19-23.2 13-25.6 0.8-21.2-13-7.2-18-12-18.8z" fill="#EA68C5" p-id="4488"></path><path d="M440.8 245l82-60.4 80.8 59.4z" fill="#FFEEF9" p-id="4489"></path><path d="M800.6 496.4c-3.4 0-6-2.8-6-6l1-96.4c0-3.2 2.8-6 6-6 3.4 0 6 2.8 6 6l-1 96.4c0 3.4-2.8 6-6 6z" fill="#2C3AC4" p-id="4490"></path><path d="M240 398v92.4l-63.4-46.2z" fill="#FFEEF9" p-id="4491"></path><path d="M806.6 398.4v92.4l63.4-46.2z" fill="#FFEEF9" p-id="4492"></path><path d="M859.2 845.4H188c-16.6 0-30-13.4-30-30V454.6c0-8.2 5.8-15.6 13.6-17.4 3.2-0.8 6.4 1.2 7.2 4.4 0.8 3.2-1.2 6.4-4.4 7.2-2.6 0.6-4.4 3-4.4 5.8v360.8c0 10 8 18 18 18h671.2c10 0 18-8 18-18V454.6c0-2.6-1.8-5-4.4-5.8-3.2-0.8-5-4.2-4.2-7.4 0.8-3.2 4.2-5 7.4-4.2 7.8 2.2 13.2 9.4 13.2 17.4v360.8c0 16.6-13.4 30-30 30z" fill="#2C3AC4" p-id="4493"></path><path d="M593 647c-2 0-3.8-1-5-2.6-1.8-2.8-1.2-6.4 1.6-8.4l280.8-192.8c2.8-1.8 6.4-1.2 8.4 1.6 1.8 2.8 1.2 6.4-1.6 8.4L596.4 646c-1 0.6-2.2 1-3.4 1zM451.6 647c-1.2 0-2.4-0.4-3.4-1l-280-192.2c-2.8-1.8-3.4-5.6-1.6-8.4 1.8-2.8 5.6-3.4 8.4-1.6l280 192.2c2.8 1.8 3.4 5.6 1.6 8.4-1.2 1.6-3 2.6-5 2.6z" fill="#2C3AC4" p-id="4494"></path><path d="M176.6 839.4c-2 0-3.8-1-5-2.6-1.8-2.8-1.2-6.4 1.6-8.4L450 638.2c2.8-1.8 6.4-1.2 8.4 1.6s1.2 6.4-1.6 8.4L180 838.4c-1 0.6-2.2 1-3.4 1zM872 841.6c-1.2 0-2.4-0.4-3.4-1L590 649.2c-2.8-1.8-3.4-5.6-1.6-8.4 1.8-2.8 5.6-3.4 8.4-1.6l278.6 191.4c2.8 1.8 3.4 5.6 1.6 8.4-1.2 1.6-3 2.6-5 2.6zM440.8 251c-1.8 0-3.6-0.8-4.8-2.4-2-2.6-1.4-6.4 1.2-8.4l82-60.4c2.2-1.6 5-1.6 7.2 0l80.8 59.4c2.6 2 3.2 5.8 1.2 8.4-2 2.6-5.8 3.2-8.4 1.2L522.8 192l-78.4 57.8c-1.2 0.8-2.4 1.2-3.6 1.2zM173.8 447.2c-1.8 0-3.6-0.8-4.8-2.4-2-2.6-1.4-6.4 1.2-8.4l66.2-48.6c2.6-2 6.4-1.4 8.4 1.2 2 2.6 1.4 6.4-1.2 8.4L177.4 446c-1.2 0.8-2.4 1.2-3.6 1.2zM873.6 448.8c-1.2 0-2.4-0.4-3.6-1.2l-66.8-49.2c-2.6-2-3.2-5.8-1.2-8.4 2-2.6 5.8-3.2 8.4-1.2l66.8 49.2c2.6 2 3.2 5.8 1.2 8.4-1.2 1.6-3 2.4-4.8 2.4z" fill="#2C3AC4" p-id="4495"></path><path d="M801 504.6c-3.4 0-6-2.8-6-6l0.8-169.2-83.4-74.6H250.8v242c0 3.4-2.6 6-6 6s-6-2.6-6-6V253.8c0-6.2 4.4-11.2 10.2-11.2h465.6c1.4 0 3 0.6 4 1.6l87.2 78c1.2 1.2 2 2.8 2 4.6l-0.8 172c0 3.2-2.6 5.8-6 5.8z" fill="#2C3AC4" p-id="4496"></path><path d="M715.8 248.6v72.8c0 2.2 2.4 4.2 5.2 4.2 26.8 0.4 53.8 0.6 80.6 1l-85.8-78z" fill="#B3BEFF" p-id="4497"></path><path d="M801.6 332.6c-13.4-0.2-26.8-0.4-40.2-0.4l-40.4-0.6c-6 0-11.2-4.6-11.2-10.2v-72.8c0-2.4 1.4-4.6 3.6-5.4 2.2-1 4.8-0.6 6.4 1l85.8 78c1.8 1.6 2.4 4.4 1.6 6.6-1 2.2-3.2 3.8-5.6 3.8z m-79.8-13c13.2 0.2 26.4 0.4 39.6 0.4 8.2 0 16.2 0.2 24.4 0.2l-64-58.2v57.6z m-0.8 0z" fill="#B3BEFF" p-id="4498"></path><path d="M583.6 592c-16-16-42.2-16-58.2 0l-2.6 2.6-2.8-2.6c-16-16-42.2-16-58.2 0s-16 42.2 0 58.2l60.8 60.8 60.8-60.8c16.2-16 16.2-42.2 0.2-58.2z" fill="#E84091" p-id="4499"></path><path d="M522.6 719.4l-65-65c-18.4-18.4-18.4-48.2 0-66.6 17.8-17.8 46.6-18.4 65.2-1.4 18.4-16.8 47.2-16.4 65.2 1.4 8.8 8.8 13.8 20.8 13.8 33.4 0 12.6-5 24.4-14 33.4l-65.2 64.8zM490.8 586c-9 0-18 3.4-24.8 10.2-13.8 13.8-13.8 36 0 49.8l56.6 56.6 56.6-56.6c6.6-6.6 10.4-15.4 10.4-24.8s-3.6-18.2-10.2-24.8c-13.8-13.8-36-13.8-49.8 0l-6.6 6.6-7.2-6.6c-6.8-7-15.8-10.4-25-10.4z" fill="#E84091" p-id="4500"></path><path d="M650.2 433c-13.2 0-26.2-5.4-35.6-15.2-2.2-2.4-2.2-6.2 0.2-8.4 2.4-2.2 6.2-2.2 8.4 0.2 8.6 8.8 20.8 13 32.8 11 20.6-3.2 34.8-22.8 31.4-43.4-1-6.8-3.8-13-8.4-18.4-2.2-2.6-1.8-6.4 0.8-8.4 2.6-2.2 6.4-1.8 8.4 0.8 6 7.4 9.8 15.6 11.2 24.4 4.2 27-14.2 52.6-41.4 57-2.4 0.2-5.2 0.4-7.8 0.4zM579.4 424.4c-25.6 0-48.4-18.8-52.6-44.8-2.4-15.8 2.2-31.6 12.6-43.6 2.2-2.4 6-2.8 8.4-0.6 2.4 2.2 2.8 6 0.6 8.4-8 9.2-11.6 21.4-9.8 33.8 3.6 22.6 24.4 37.8 47.2 34.2 6.8-1 13-3.6 18.2-7.6 2.6-2 6.4-1.6 8.4 1.2s1.6 6.4-1.2 8.4c-6.8 5.2-14.8 8.6-23.8 10-2.6 0.4-5.4 0.6-8 0.6z" fill="#2C3AC4" p-id="4501"></path><path d="M686.4 360.4c-0.6 0-1.4-0.2-2-0.4-3.2-1.2-4.8-4.6-3.6-7.6 3-8 3.8-16.8 2.4-25.4-4.6-28.6-31.6-48-60.2-43.6-4.6 0.6-9.4 2.2-14.2 4.4-3 1.4-6.6 0-8-3s0-6.6 3-8c5.8-2.6 11.8-4.4 17.4-5.2 34.8-5.4 68 18.6 73.8 53.6 1.8 10.6 0.8 21.4-2.8 31.4-1 2.2-3.4 3.8-5.8 3.8z" fill="#2C3AC4" p-id="4502"></path><path d="M569.2 365.8c-0.6 0-1.2 0-1.8-0.4-17.2-5.8-29.6-20.4-32.4-38.2-4.2-26.2 14-51 40.2-55.2 20.6-3.2 40.8 7 50.2 25.2 1.6 3 0.4 6.6-2.6 8.2-3 1.6-6.6 0.4-8.2-2.6-7.2-13.6-22.4-21.2-37.8-18.8-19.6 3.2-33.2 21.8-30.2 41.6 2.2 13.4 11.6 24.4 24.4 28.6 3.2 1 4.8 4.4 3.8 7.6-0.8 2.4-3 4-5.6 4zM620.6 416c-21.6 0-41.4-14.6-47.2-36.4-0.8-3.2 1-6.4 4.2-7.4 3.2-0.8 6.4 1 7.4 4.2 5.2 19.6 25.2 31.4 44.8 26.4 11.8-3 21.4-11.6 25.4-23.4 1.2-3.2 4.6-4.8 7.6-3.6 3.2 1.2 4.8 4.6 3.6 7.6-5.4 15.6-18.2 27-33.8 31-3.8 1-8 1.6-12 1.6z" fill="#2C3AC4" p-id="4503"></path><path d="M652 387c-13.4 0-25.6-8-31-20.6-1.2-3 0.2-6.6 3.2-7.8 3-1.2 6.6 0.2 7.8 3.2 3.8 9.2 13.4 14.6 23.4 13 11.8-1.8 19.8-13 18-24.8-1-5.8-4-10.8-8.6-14.2-4.6-3.4-10.4-4.8-16-3.8-3.2 0.6-6.4-1.8-6.8-5-0.6-3.2 1.8-6.4 5-6.8 8.8-1.4 17.8 0.8 25 6 7.2 5.2 12 13 13.4 22 2.8 18.2-9.6 35.6-28 38.4-1.8 0.2-3.6 0.4-5.4 0.4z" fill="#2C3AC4" p-id="4504"></path><path d="M629 367.8c-2 0-3.8-1-5-2.6-1.8-2.8-1.2-6.4 1.6-8.4 8.8-6.2 13.4-17 11.6-27.4-2.4-15.2-16.8-25.8-32.2-23.4-7.4 1.2-13.8 5-18.4 11.2-4.4 6.2-6.2 13.6-5 21 0.6 3.2-1.6 6.4-5 6.8-3.2 0.6-6.4-1.6-6.8-5-1.8-10.6 0.8-21.2 7.2-30 6.4-8.6 15.6-14.4 26.2-16 21.8-3.2 42.4 11.6 45.8 33.4 2.4 15.2-4 30.6-16.8 39.2-0.8 0.8-2 1.2-3.2 1.2z" fill="#2C3AC4" p-id="4505"></path><path d="M593.6 389.6c-6.2 0-12.4-2-17.6-5.8-6.6-4.8-11-11.8-12.2-19.8-2.6-16.6 8.8-32.2 25.2-34.6 7.8-1.2 15.8 0.8 22.6 5.4 2.8 1.8 3.4 5.6 1.6 8.4-1.8 2.8-5.6 3.4-8.4 1.6-4.2-3-9.2-4.2-13.8-3.4-9.8 1.4-16.6 11-15.2 21 0.8 4.8 3.4 9 7.4 12 4 2.8 8.8 4 13.6 3.2 6.6-1 12-5.4 14.4-11.6 1.2-3 4.6-4.6 7.8-3.4 3 1.2 4.6 4.6 3.4 7.8-4 10.2-13 17.6-23.6 19.2-2-0.2-3.6 0-5.2 0z" fill="#2C3AC4" p-id="4506"></path><path d="M620.2 369c-10.4 0-19-8.6-19-19s8.6-19 19-19 19 8.6 19 19-8.6 19-19 19z m0-26c-3.8 0-7 3.2-7 7s3.2 7 7 7 7-3.2 7-7-3.2-7-7-7z" fill="#2C3AC4" p-id="4507"></path><path d="M657.4 596.6c-2.2 0-4.4-1.2-5.4-3.4-1-2-24.2-48.6-34.4-97.6-10-48.8-10.8-81.2-11-82.6 0-3.4 2.6-6 5.8-6.2h0.2c3.2 0 6 2.6 6 5.8 0 0.4 1 33 10.6 80.6 9.8 47.4 33 94.2 33.2 94.8 1.4 3 0.2 6.6-2.6 8-0.6 0.4-1.4 0.6-2.4 0.6z" fill="#2C3AC4" p-id="4508"></path><path d="M642 563.6c-2.6 0-5-1.8-5.8-4.4-0.6-1.8-12-44.2 7.8-76.4 20-32.2 63-41 64.8-41.4 3-0.6 6 1.2 7 4.2 0.4 1.8 11.8 44-7.8 76.4-20 32.2-63 41-64.8 41.4-0.4 0.2-0.8 0.2-1.2 0.2z m63.4-108.8c-11.6 3.4-38 13-51.2 34.4-13.2 21.4-10 49.2-7.8 61.2 11.6-3.4 38-13 51.2-34.4 13.2-21.6 10-49.4 7.8-61.2z m-2.6 64.2z" fill="#2C3AC4" p-id="4509"></path><path d="M644.8 559.2c-1 0-2.2-0.2-3.2-0.8-2.8-1.8-3.6-5.4-2-8.2l34.4-55.8c1.8-2.8 5.4-3.8 8.2-2 2.8 1.8 3.6 5.4 2 8.2L650 556.4c-1.2 1.8-3.2 2.8-5.2 2.8z" fill="#2C3AC4" p-id="4510"></path><path d="M612.8 460.4c-1.6 0-3.2-0.6-4.4-2l-15.8-17.2c-2.2-2.4-2-6.2 0.4-8.4s6.2-2 8.4 0.4l15.8 17.2c2.2 2.4 2 6.2-0.4 8.4-1 1-2.6 1.6-4 1.6z" fill="#2C3AC4" p-id="4511"></path><path d="M621.4 487.6c-1 0-2.2-0.2-3-0.8-2.8-1.8-3.8-5.4-2-8.2l8.8-14.6c1.8-2.8 5.4-3.8 8.2-2 2.8 1.8 3.8 5.4 2 8.2l-8.8 14.6c-1.2 1.8-3.2 2.8-5.2 2.8z" fill="#2C3AC4" p-id="4512"></path><path d="M621.4 500.8c-1 0-2-0.2-3-0.8l-14.6-8.6c-2.8-1.6-3.8-5.4-2.2-8.2 1.6-2.8 5.4-3.8 8.2-2.2l14.6 8.6c2.8 1.6 3.8 5.4 2.2 8.2-1.2 2-3.2 3-5.2 3z" fill="#2C3AC4" p-id="4513"></path><path d="M453.6 338.6h-142c-3.4 0-6-2.6-6-6s2.6-6 6-6h142c3.4 0 6 2.6 6 6s-2.6 6-6 6z" fill="#2C3AC4" p-id="4514"></path><path d="M453.6 408h-142c-3.4 0-6-2.6-6-6s2.6-6 6-6h142c3.4 0 6 2.6 6 6s-2.6 6-6 6z" fill="#2C3AC4" p-id="4515"></path><path d="M531.6 477.2H311.8c-3.4 0-6-2.6-6-6s2.6-6 6-6h219.8c3.4 0 6 2.6 6 6s-2.6 6-6 6z" fill="#2C3AC4" p-id="4516"></path><path d="M569.6 546.6H311.8c-3.4 0-6-2.6-6-6s2.6-6 6-6h257.8c3.4 0 6 2.6 6 6s-2.6 6-6 6z" fill="#2C3AC4" p-id="4517"></path><path d="M204.4 304.2c-11.8-4.8-25.6 0.8-30.4 12.6l-0.8 2-2-0.8c-11.8-4.8-25.6 0.8-30.4 12.6-2 4.8-4 19.4 7.4 28.2 16.8 13.2 50.2 20.8 50.2 20.8s18.2-29 20.8-50.2c1.6-14.4-10-23.2-14.8-25.2z" fill="#FFA4E1" p-id="4518"></path><path d="M842.8 224c-3.4 0-6-2.6-6-6v-12c0-3.4 2.6-6 6-6s6 2.6 6 6v12c0 3.4-2.6 6-6 6zM842.8 296c-3.4 0-6-2.6-6-6v-12c0-3.4 2.6-6 6-6s6 2.6 6 6v12c0 3.4-2.6 6-6 6zM812.8 254h-12c-3.4 0-6-2.6-6-6s2.6-6 6-6h12c3.4 0 6 2.6 6 6s-2.6 6-6 6zM884.8 254h-12c-3.4 0-6-2.6-6-6s2.6-6 6-6h12c3.4 0 6 2.6 6 6s-2.6 6-6 6z" fill="#2C3AC4" p-id="4519"></path><path d="M821.6 232.8c-1.6 0-3-0.6-4.2-1.8l-8.6-8.4c-2.4-2.4-2.4-6.2-0.2-8.4 2.4-2.4 6.2-2.4 8.4 0l8.6 8.4c2.4 2.4 2.4 6.2 0 8.4-0.8 1.2-2.4 1.8-4 1.8zM872.4 283.8c-1.6 0-3.2-0.6-4.2-1.8l-8.4-8.6c-2.4-2.4-2.2-6.2 0-8.4 2.4-2.4 6.2-2.2 8.4 0l8.4 8.6c2.4 2.4 2.2 6.2 0 8.4-1.2 1.2-2.6 1.8-4.2 1.8zM813 283.8c-1.6 0-3-0.6-4.2-1.8-2.4-2.4-2.4-6.2 0-8.4l8.6-8.6c2.4-2.4 6.2-2.4 8.4 0 2.4 2.4 2.4 6.2 0 8.4l-8.6 8.6c-1.2 1.2-2.6 1.8-4.2 1.8zM864 232.8c-1.6 0-3-0.6-4.2-1.8-2.4-2.4-2.4-6.2 0-8.4l8.4-8.4c2.4-2.4 6.2-2.4 8.4 0 2.4 2.4 2.4 6.2 0 8.4l-8.4 8.4c-1.2 1.2-2.6 1.8-4.2 1.8z" fill="#2C3AC4" p-id="4520"></path></svg>