<?xml version="1.0" standalone="no"?><!DOCTYPE svg PUBLIC "-//W3C//DTD SVG 1.1//EN" "http://www.w3.org/Graphics/SVG/1.1/DTD/svg11.dtd"><svg t="1663639291552" class="icon" viewBox="0 0 1024 1024" version="1.1" xmlns="http://www.w3.org/2000/svg" p-id="8018" width="128" height="128" xmlns:xlink="http://www.w3.org/1999/xlink"><path d="M483.4 336.6H147.2c-12.8 0-23.2 10.4-23.2 23.2v438c0 12.8 10.4 23.2 23.2 23.2h736.6c12.8 0 23.2-10.4 23.2-23.2v-438c0-12.8-10.4-23.2-23.2-23.2h-70.6M811 335.4l-33.2-93.2c-3.2-9.2-12-15.4-22-15.4H540.6c-9.8 0-18.6 6.2-22 15.4l-33.2 93.2" fill="#FFDEF1" p-id="8019"></path><path d="M126.8 444h780.2v319.8H126.8z" fill="#FFFFFF" p-id="8020"></path><path d="M891.6 816.2H140.4c-8 0-14.4-6.4-14.4-14.4v-23.4c0-8 6.4-14.4 14.4-14.4h751.2c8 0 14.4 6.4 14.4 14.4v23.4c0 7.8-6.4 14.4-14.4 14.4z" fill="#5ACCC3" p-id="8021"></path><path d="M752.8 337.4H543.6l21.4-58.2c2.2-5.8 7.8-9.6 14-9.6h138.4c6.4 0 12 3.8 14 9.6l21.4 58.2z" fill="#6DE2D9" p-id="8022"></path><path d="M752.8 343.4H543.6c-2 0-3.8-1-5-2.6-1.2-1.6-1.4-3.6-0.8-5.6l21.4-58.2c3-8.2 11-13.6 19.6-13.6h138.4c9 0 16.8 5.4 19.6 13.6l21.4 58c0.6 1.8 0.4 3.8-0.8 5.6-0.8 1.8-2.6 2.8-4.6 2.8z m-200.6-12h192l-18.4-50.2c-1.2-3.4-4.4-5.6-8.4-5.6h-138.4c-3.8 0-7 2.4-8.4 5.8l-18.4 50z" fill="#2C3AC4" p-id="8023"></path><path d="M883.8 827H147.2c-16.2 0-29.2-13-29.2-29.2v-438c0-16.2 13-29.2 29.2-29.2h336.2c3.4 0 6 2.6 6 6s-2.6 6-6 6H147.2c-9.4 0-17.2 7.8-17.2 17.2v438c0 9.4 7.8 17.2 17.2 17.2h736.6c9.4 0 17.2-7.8 17.2-17.2v-438c0-9.4-7.8-17.2-17.2-17.2h-70.6c-3.4 0-6-2.6-6-6s2.6-6 6-6h70.6c16 0 29.2 13 29.2 29.2v438c0 16.2-13 29.2-29.2 29.2z" fill="#2C3AC4" p-id="8024"></path><path d="M811 341.4c-2.4 0-4.8-1.6-5.6-4l-33.2-93.2c-2.4-6.8-9-11.4-16.4-11.4H540.6c-7.2 0-13.8 4.6-16.4 11.4l-33.2 93.2c-1.2 3.2-4.6 4.8-7.6 3.6-3.2-1.2-4.8-4.6-3.6-7.6l33.2-93.2c4.2-11.6 15.4-19.4 27.6-19.4h215.2c12.6 0 23.6 7.8 27.6 19.4l33.2 93.2c1.2 3.2-0.6 6.6-3.6 7.6-0.6 0.2-1.4 0.4-2 0.4zM421.4 341.4h-124c-9.8 0-17.8-8-17.8-17.8v-25c0-9.8 8-17.8 17.8-17.8h124c9.8 0 17.8 8 17.8 17.8v25c-0.4 10-8.2 17.8-17.8 17.8z m-124-48.6c-3.2 0-5.8 2.6-5.8 5.8v25c0 3.2 2.6 5.8 5.8 5.8h124c3.2 0 5.8-2.6 5.8-6v-24.8c0-3.2-2.6-5.8-5.8-5.8h-124z" fill="#2C3AC4" p-id="8025"></path><path d="M245 335.4H175.2v-15c0-8.8 7.2-16 16-16h37.8c8.8 0 16 7.2 16 16v15z" fill="#17A8A5" p-id="8026"></path><path d="M245 341.4H175.2c-3.4 0-6-2.6-6-6v-15c0-12.2 9.8-22 22-22h37.8c12.2 0 22 9.8 22 22v15c0 3.4-2.6 6-6 6z m-63.8-12h57.8v-9c0-5.6-4.4-10-10-10H191.2c-5.6 0-10 4.4-10 10v9z" fill="#2C3AC4" p-id="8027"></path><path d="M648.2 581.6m-195.8 0a195.8 195.8 0 1 0 391.6 0 195.8 195.8 0 1 0-391.6 0Z" fill="#8895F2" p-id="8028"></path><path d="M648.2 783.4c-111.2 0-201.8-90.6-201.8-201.8 0-111.2 90.6-201.8 201.8-201.8 111.2 0 201.8 90.6 201.8 201.8 0 111.2-90.6 201.8-201.8 201.8z m0-391.6c-104.6 0-189.8 85.2-189.8 189.8s85.2 189.8 189.8 189.8 189.8-85.2 189.8-189.8-85.2-189.8-189.8-189.8z" fill="#2C3AC4" p-id="8029"></path><path d="M648.2 581.6m-143.4 0a143.4 143.4 0 1 0 286.8 0 143.4 143.4 0 1 0-286.8 0Z" fill="#C0CBFF" p-id="8030"></path><path d="M648.2 731c-82.4 0-149.4-67-149.4-149.4s67-149.4 149.4-149.4 149.4 67 149.4 149.4-67 149.4-149.4 149.4z m0-286.8c-75.8 0-137.4 61.6-137.4 137.4 0 75.8 61.6 137.4 137.4 137.4 75.8 0 137.4-61.6 137.4-137.4 0-75.8-61.6-137.4-137.4-137.4z" fill="#2C3AC4" p-id="8031"></path><path d="M754.4 565.2c-2.8 0-5.4-2-5.8-5-0.4-2-1-4-1.4-6-1.2-4.4-2.8-8.8-5-13.6-1.4-3 0-6.6 3.2-7.8 3-1.4 6.6 0 7.8 3.2 2.4 5.4 4.2 10.4 5.4 15.2 0.6 2.4 1.2 4.6 1.8 7.2 0.6 3.2-1.6 6.4-4.8 7-0.4-0.2-0.8-0.2-1.2-0.2zM740 529.6c-2 0-4-1-5-2.8-10.4-16.4-25-29.4-42-37.6-3-1.4-4.2-5-2.8-8 1.4-3 5-4.2 8-2.8 19 9.2 35.2 23.8 46.8 42 1.8 2.8 1 6.6-1.8 8.2-1 0.6-2 1-3.2 1zM563.8 655.8c-1.8 0-3.4-0.8-4.6-2.2-10.2-12.4-17.4-26.6-21.6-41.8-0.8-3.2 1-6.4 4.2-7.4 3.2-0.8 6.4 1 7.4 4.2 3.8 13.6 10.2 26.2 19.2 37.4 2 2.6 1.6 6.4-0.8 8.4-1.2 1-2.4 1.4-3.8 1.4zM576.8 669.4c-1.6 0-3-0.6-4.2-1.8l-0.8-0.8c-2.4-2.4-2.4-6.2 0-8.4s6.2-2.4 8.4 0l0.8 0.8c2.4 2.4 2.4 6.2 0 8.4-1.2 1.2-2.6 1.8-4.2 1.8zM628.2 694.2c-0.4 0-0.8 0-1.2-0.2-14.6-2.8-28-8-40-15.6-2.8-1.8-3.6-5.4-1.8-8.2 1.8-2.8 5.4-3.6 8.2-1.8 10.8 6.8 22.8 11.6 36 14 3.2 0.6 5.4 3.8 4.8 7-0.6 2.8-3.2 4.8-6 4.8z" fill="#2C3AC4" p-id="8032"></path><path d="M171.4 719.2m-19.4 0a19.4 19.4 0 1 0 38.8 0 19.4 19.4 0 1 0-38.8 0Z" fill="#FFB3E2" p-id="8033"></path><path d="M900.2 450h-112.4c-3.4 0-6-2.6-6-6s2.6-6 6-6h112.4c3.4 0 6 2.6 6 6s-2.6 6-6 6zM504.8 450h-380c-3.4 0-6-2.6-6-6s2.6-6 6-6h380c3.4 0 6 2.6 6 6s-2.6 6-6 6zM900.2 769.8H720c-3.4 0-6-2.6-6-6s2.6-6 6-6h180.2c3.4 0 6 2.6 6 6s-2.6 6-6 6zM576.4 769.8H126.8c-3.4 0-6-2.6-6-6s2.6-6 6-6h449.6c3.4 0 6 2.6 6 6s-2.6 6-6 6z" fill="#2C3AC4" p-id="8034"></path><path d="M310.8 769.8c-3.4 0-6-2.6-6-6V444c0-3.4 2.6-6 6-6s6 2.6 6 6v319.8c0 3.4-2.6 6-6 6z" fill="#2C3AC4" p-id="8035"></path><path d="M707.2 539.4c-15.6-15.6-41-15.6-56.4 0l-2.6 2.6-2.6-2.6c-15.6-15.6-41-15.6-56.4 0-6.2 6.2-19.2 28-7 49.6 18 32 66 66 66 66s47.8-34 66-66c12-21.6-0.8-43.4-7-49.6z" fill="#F25CAB" p-id="8036"></path><path d="M866.8 409h-49.8c-5.6 0-10-4.6-10-10v-18.8c0-5.6 4.6-10 10-10h49.8c5.6 0 10 4.6 10 10v18.8c0 5.6-4.4 10-10 10z" fill="#F272B5" p-id="8037"></path><path d="M866.8 415h-49.8c-8.8 0-16-7.2-16-16v-18.8c0-8.8 7.2-16 16-16h49.8c8.8 0 16 7.2 16 16v18.8c0 9-7 16-16 16z m-49.8-38.8c-2.2 0-4 1.8-4 4v18.8c0 2.2 1.8 4 4 4h49.8c2.2 0 4-1.8 4-4v-18.8c0-2.2-1.8-4-4-4h-49.8z" fill="#F272B5" p-id="8038"></path><path d="M309 335.6c-3.4 0-6-2.6-6-6v-42.6c0-3.4 2.6-6 6-6s6 2.6 6 6v42.6c0 3.4-2.6 6-6 6zM334.2 335.6c-3.4 0-6-2.6-6-6v-42.6c0-3.4 2.6-6 6-6s6 2.6 6 6v42.6c0 3.4-2.6 6-6 6z" fill="#2C3AC4" p-id="8039"></path><path d="M359.4 335.6c-3.4 0-6-2.6-6-6v-42.6c0-3.4 2.6-6 6-6s6 2.6 6 6v42.6c0 3.4-2.6 6-6 6z" fill="#2C3AC4" p-id="8040"></path><path d="M384.6 335.6c-3.4 0-6-2.6-6-6v-42.6c0-3.4 2.6-6 6-6s6 2.6 6 6v42.6c0 3.4-2.6 6-6 6z" fill="#2C3AC4" p-id="8041"></path><path d="M409.8 337.6c-3.4 0-6-2.6-6-6v-42.8c0-3.4 2.6-6 6-6s6 2.6 6 6v42.8c0 3.4-2.6 6-6 6z" fill="#2C3AC4" p-id="8042"></path><path d="M165.6 399.4h-3.8c-5.4 0-9.6-4.4-9.6-9.8s4.4-9.8 9.6-9.8h3.8c5.4 0 9.6 4.4 9.6 9.8s-4.4 9.8-9.6 9.8z" fill="#2C3AC4" p-id="8043"></path><path d="M165.6 405.4h-3.8c-8.6 0-15.6-7-15.6-15.8s7-15.8 15.6-15.8h3.8c8.6 0 15.6 7 15.6 15.8s-7 15.8-15.6 15.8z m-3.8-19.6c-2 0-3.6 1.8-3.6 3.8 0 2.2 1.6 3.8 3.6 3.8h3.8c2 0 3.6-1.8 3.6-3.8 0-2.2-1.6-3.8-3.6-3.8h-3.8z" fill="#2C3AC4" p-id="8044"></path><path d="M235.4 399.4h-27.2c-5.4 0-9.6-4.4-9.6-9.8s4.4-9.8 9.6-9.8h27.2c5.4 0 9.6 4.4 9.6 9.8s-4.4 9.8-9.6 9.8z" fill="#07B1AE" p-id="8045"></path><path d="M235.4 405.4h-27.2c-8.6 0-15.6-7-15.6-15.8s7-15.8 15.6-15.8h27.2c8.6 0 15.6 7 15.6 15.8s-7 15.8-15.6 15.8z m-27.2-19.6c-2 0-3.6 1.8-3.6 3.8 0 2.2 1.6 3.8 3.6 3.8h27.2c2 0 3.6-1.8 3.6-3.8 0-2.2-1.6-3.8-3.6-3.8h-27.2z" fill="#07B1AE" p-id="8046"></path><path d="M135.4 208.4l13.8 37.2c0.2 0.6 0.8 1.2 1.4 1.4l37.2 13.8c2 0.8 2 3.8 0 4.4l-37.2 13.8c-0.6 0.2-1.2 0.8-1.4 1.4l-13.8 37.2c-0.8 2-3.6 2-4.4 0l-13.8-37.2c-0.2-0.6-0.8-1.2-1.4-1.4l-37.2-13.8c-2-0.8-2-3.8 0-4.4l37.2-13.8c0.6-0.2 1.2-0.8 1.4-1.4l13.8-37.2c0.6-2 3.6-2 4.4 0z" fill="#E84091" p-id="8047"></path><path d="M209.2 178.6c-3.4 0-6-2.6-6-6v-9.8c0-3.4 2.6-6 6-6s6 2.6 6 6v9.8c0 3.4-2.6 6-6 6zM209.2 236.8c-3.4 0-6-2.6-6-6v-9.8c0-3.4 2.6-6 6-6s6 2.6 6 6v9.8c0 3.4-2.6 6-6 6zM185 202.8h-9.8c-3.4 0-6-2.6-6-6s2.6-6 6-6h9.8c3.4 0 6 2.6 6 6s-2.6 6-6 6zM243 202.8h-9.6c-3.4 0-6-2.6-6-6s2.6-6 6-6h9.6c3.4 0 6 2.6 6 6s-2.6 6-6 6z" fill="#2C3AC4" p-id="8048"></path><path d="M192 185.6c-1.6 0-3-0.6-4.2-1.8l-6.8-6.8c-2.4-2.4-2.4-6.2 0-8.4 2.4-2.4 6.2-2.4 8.4 0l6.8 6.8c2.4 2.4 2.4 6.2 0 8.4-1.2 1.2-2.6 1.8-4.2 1.8zM233.2 226.8c-1.6 0-3-0.6-4.2-1.6l-7-6.8c-2.4-2.4-2.4-6.2-0.2-8.4 2.4-2.4 6.2-2.4 8.4-0.2l7 6.8c2.4 2.4 2.4 6.2 0.2 8.4-1 1.2-2.6 1.8-4.2 1.8zM185.2 226.8c-1.6 0-3-0.6-4.2-1.8-2.4-2.4-2.4-6.2 0-8.4l6.8-6.8c2.4-2.4 6.2-2.4 8.4 0 2.4 2.4 2.4 6.2 0 8.4l-6.8 6.8c-1.2 1.2-2.6 1.8-4.2 1.8zM226.2 185.6c-1.6 0-3.2-0.6-4.4-1.8-2.4-2.4-2.2-6.2 0.2-8.4l7-6.8c2.4-2.4 6.2-2.2 8.4 0.2 2.4 2.4 2.2 6.2-0.2 8.4l-7 6.8c-1 1-2.4 1.6-4 1.6z" fill="#2C3AC4" p-id="8049"></path></svg>