<?xml version="1.0" standalone="no"?><!DOCTYPE svg PUBLIC "-//W3C//DTD SVG 1.1//EN" "http://www.w3.org/Graphics/SVG/1.1/DTD/svg11.dtd"><svg t="1663640056651" class="icon" viewBox="0 0 1024 1024" version="1.1" xmlns="http://www.w3.org/2000/svg" p-id="2052" xmlns:xlink="http://www.w3.org/1999/xlink" width="128" height="128"><path d="M802.4 881.6H175.2c-5.6 0-10-4.4-10-10V202c0-5.6 4.4-10 10-10h627.2c5.6 0 10 4.4 10 10v669.6c0 5.6-4.4 10-10 10z m-625.2-12h623.2V204H177.2v665.6z" fill="#2C3AC4" p-id="2053"></path><path d="M211.4 255.6h552v352h-552z" fill="#C0DAFF" p-id="2054"></path><path d="M211.6 580.4l16 8 16.2-14.2 16 14.2 16.4-12.6 17.8 12.6 13.8-14.2 20 16.2 12.6-14.4-5.4-23.6-22.2-2.4 5-13 17.2-5.6 21.2 5.4 11.2 13.2v59.2h-153.8l-2-28.8" fill="#7186FF" p-id="2055"></path><path d="M227.6 594.4c-12.2 0-22-9.8-22-22 0-3.4 2.6-6 6-6s6 2.6 6 6c0 5.6 4.4 10 10 10s10-4.4 10-10c0-3.4 2.6-6 6-6s6 2.6 6 6c0 12.2-9.8 22-22 22z" fill="#2C3AC4" p-id="2056"></path><path d="M259.8 594.4c-12.2 0-22-9.8-22-22 0-3.4 2.6-6 6-6s6 2.6 6 6c0 5.6 4.4 10 10 10s10-4.4 10-10c0-3.4 2.6-6 6-6s6 2.6 6 6c0 12.2-9.8 22-22 22z" fill="#2C3AC4" p-id="2057"></path><path d="M292 594.4c-12.2 0-22-9.8-22-22 0-3.4 2.6-6 6-6s6 2.6 6 6c0 5.6 4.4 10 10 10s10-4.4 10-10c0-3.4 2.6-6 6-6s6 2.6 6 6c0 12.2-9.8 22-22 22z" fill="#2C3AC4" p-id="2058"></path><path d="M324.2 594.4c-12.2 0-22-9.8-22-22 0-3.4 2.6-6 6-6s6 2.6 6 6c0 5.6 4.4 10 10 10s10-4.4 10-10c0-3.4 2.6-6 6-6s6 2.6 6 6c0 12.2-9.8 22-22 22z" fill="#2C3AC4" p-id="2059"></path><path d="M340.2 575.8c-3.4 0-6-2.6-6-6 0-7.8-6-13.8-13.8-13.8-3.4 0-6.4 1-8.8 3-2.6 2.2-6.4 1.8-8.4-0.8-2.2-2.6-1.8-6.4 0.8-8.4 4.6-3.8 10.4-5.8 16.4-5.8 14.2 0 25.8 11.6 25.8 25.8 0 3.4-2.6 6-6 6z" fill="#2C3AC4" p-id="2060"></path><path d="M307.8 560.4c-0.4 0-1 0-1.4-0.2-3.2-0.8-5.2-4-4.4-7.2 4-16.2 18.4-27.6 35-27.6 16 0 30.4 10.8 34.8 26.4 1 3.2-1 6.6-4.2 7.4-3.2 1-6.6-1-7.4-4.2-3-10.4-12.6-17.6-23.2-17.6-11.2 0-20.8 7.6-23.4 18.4-0.6 2.8-3 4.6-5.8 4.6z" fill="#2C3AC4" p-id="2061"></path><path d="M365.6 543c-1 0-1.8-0.2-2.6-0.6-3-1.4-4.2-5-2.6-8 2.2-4.6 1.2-10-2.6-13.6-3.8-3.6-9.6-4-14-1-2.8 1.8-6.4 1.2-8.4-1.6-1.8-2.8-1.2-6.4 1.6-8.4 8.8-6 21-5.2 28.8 2.2 7.6 7 9.6 18.4 5 27.6-0.8 2.2-3 3.4-5.2 3.4z" fill="#2C3AC4" p-id="2062"></path><path d="M365.6 543c-1 0-1.8-0.2-2.6-0.6-3-1.4-4.2-5-2.6-8 2.2-4.6 1.2-10-2.6-13.6-3.8-3.6-9.6-4-14-1-2.8 1.8-6.4 1.2-8.4-1.6-1.8-2.8-1.2-6.4 1.6-8.4 8.8-6 21-5.2 28.8 2.2 7.6 7 9.6 18.4 5 27.6-0.8 2.2-3 3.4-5.2 3.4z" fill="#2C3AC4" p-id="2063"></path><path d="M763.6 701.6H211.4c-3.4 0-6-2.6-6-6v-440c0-3.4 2.6-6 6-6h552.2c3.4 0 6 2.6 6 6v440c0 3.4-2.6 6-6 6z m-546.2-12h540.2v-428H217.4v428z" fill="#2C3AC4" p-id="2064"></path><path d="M211.6 611h551.8v80.6H211.6z" fill="#FFDEF1" p-id="2065"></path><path d="M758 616h-71.2c-3.4 0-6-2.6-6-6s2.6-6 6-6H758c3.4 0 6 2.6 6 6s-2.6 6-6 6zM651.6 616h-35.4c-3.4 0-6-2.6-6-6s2.6-6 6-6h35.4c3.4 0 6 2.6 6 6s-2.6 6-6 6zM555.8 616H217c-3.4 0-6-2.6-6-6s2.6-6 6-6h338.8c3.4 0 6 2.6 6 6s-2.6 6-6 6z" fill="#2C3AC4" p-id="2066"></path><path d="M516.6 452.4s-37.4-4.2-62.2 0c-22.4 3.8-32.8 23.6-47.8 33.2-13.2 8.6-31.6 7.8-37.4 31.2-5.2 20.8-0.6 46.8-4.2 62.2-5 21.6-18.4 30.2-18.4 30.2h65.2s45.4-43.2 63-57.4c17.6-14 41.8-99.4 41.8-99.4z" fill="#07B1AE" p-id="2067"></path><path d="M414.2 615.2h-88l17.2-11c0.4-0.2 11.4-7.8 15.8-26.6 1.4-6.4 1.4-15.2 1.4-24.6 0-12-0.2-25.6 2.8-37.6 4.8-19.8 18.2-25.2 29-29.6 4-1.6 7.8-3.2 11-5.2 4.8-3 9-7.2 13.6-11.8 9.4-9.2 19.8-19.4 36.4-22.2 25.4-4.2 62.4-0.2 63.8 0l7 0.8-2 6.8c-2.6 9-25.2 87.6-43.8 102.4-17.2 13.8-62.2 56.6-62.6 57l-1.6 1.6z m-53.4-12h48.8c8.6-8.2 45.8-43.2 61.6-56 11-8.8 28-56.8 37.8-89.4-11.8-1-36-2.4-53.4 0.6-12.8 2.2-21.2 10.4-30 19-4.8 4.8-9.8 9.6-15.6 13.4-4.2 2.8-8.6 4.6-13 6.2-10.2 4.2-18.4 7.4-21.8 21.2-2.6 10.6-2.6 22.8-2.6 34.6 0 10.2 0.2 19.8-1.6 27.4-2.4 10.2-6.4 17.6-10.2 23z" fill="#07B1AE" p-id="2068"></path><path d="M763.6 608s-2-207.4-5.8-207.4c-23.4 0.4-111.8 2-145.8 2-39.4 0-68.6 35.2-103.8 60.2s-12.4 74.8-54 93.4c-39.6 17.8-49.8 54-49.8 54" fill="#96E0D7" p-id="2069"></path><path d="M676.4 670.2h-33.2c-3.4 0-6-2.6-6-6s2.6-6 6-6h33.2c3.4 0 6 2.6 6 6s-2.6 6-6 6zM668.6 493.8c-11.6 0-21.2-9.6-21.2-21.2 0-4.8 1.6-9.4 4.4-12.8 2.2-2.6 6-2.8 8.4-0.8 2.6 2.2 2.8 6 0.8 8.4-1 1.2-1.6 3-1.6 5.2 0 5 4.2 9.2 9.2 9.2 3.4 0 6 2.6 6 6s-2.6 6-6 6z" fill="#2C3AC4" p-id="2070"></path><path d="M675.4 566.6h-14.6c-6.2 0-11.4-5.2-11.4-11.4v-43.6c0-13.2 10.8-23.8 23.8-23.8h2.2c6.2 0 11.4 5.2 11.4 11.4v56.2c0 6.2-5 11.2-11.4 11.2z" fill="#B3BEFF" p-id="2071"></path><path d="M677.4 664.4l-19.8-0.2-7.4-97.6 20.2 0.2c10.2 0 18 8.6 16.8 18.2l-9.8 79.4z" fill="#7186FF" p-id="2072"></path><path d="M596.4 504c-3.4 0-6-2.6-6-6s2.6-6 6-6c5.2 0 9.6-4.2 9.6-9.2 0-1.8-0.4-3.2-1-4.4-1.8-2.8-1-6.6 1.8-8.2 2.8-1.8 6.6-1 8.2 1.8 2 3 3 6.8 3 10.8 0 11.6-9.6 21.2-21.6 21.2z" fill="#2C3AC4" p-id="2073"></path><path d="M608.8 556.2h-14c-14.2 0-26.6 9.6-30 23.6l-21.2 84.4h75.6l-10.4-108zM583 475.2s-4 2.6-9.6 7c-5.8 4.6-13.2 11.6-19.4 20-12.4 16.6-14.6 33.2-14.6 33.2l43.6 14.6v-74.8z" fill="#FFFFFF" p-id="2074"></path><path d="M583.8 502.4c2-2.6 5-4.4 8.4-4.4 12.2 0 22 16.2 22 24.8s-6.2 10.4-6.2 14.8v18.6h-19.8c-6.2 0-7.2-1.6-7.2-8.6M583 477.4s-8.2-14.6-18.6-14.6-12.4 14.6 0 16.6c12.4 2.2 18.6-2 18.6-2z" fill="#FFFFFF" p-id="2075"></path><path d="M635 568.6c-1.6 0-3.2-0.6-4.4-2-2.2-2.4-2-6.2 0.4-8.4 10.2-9.2 22.2-20.8 23.6-23.4 1-2.2 4.8-16 7.6-27.6 0.8-3.2 4-5.2 7.2-4.4 3.2 0.8 5.2 4 4.4 7.2-1.4 6-6.6 26-8.6 30.2-2 4.2-15.4 17-26.4 26.8-1 1-2.4 1.6-3.8 1.6z" fill="#2C3AC4" p-id="2076"></path><path d="M626.6 568.4c-1.6 0-3.2-0.6-4.4-2l-18.6-20.6c-0.4-0.4-0.8-1-1-1.6l-12.4-27c-1.4-3 0-6.6 3-8 3-1.4 6.6 0 8 3l12 26.2 18 20c2.2 2.4 2 6.2-0.4 8.4-1.4 1-2.8 1.6-4.2 1.6z" fill="#2C3AC4" p-id="2077"></path><path d="M480.2 375.4c0-0.4 0.2-0.8 0.2-1.2 0-6-4.8-11-11-11-4.6 0-8.6 2.8-10.2 7-1.6-5.2-6.4-9-12-9-7 0-12.6 5.6-12.6 12.6v1.2c-6.4 0.2-11.4 5.4-11.4 11.8s5.2 11.8 11.8 11.8h42c6.4 0 11.8-5.2 11.8-11.8 0-5.4-3.6-10-8.6-11.4z" fill="#FFFFFF" p-id="2078"></path><path d="M477 404.6h-42c-9.8 0-17.8-8-17.8-17.8 0-7.8 4.8-14.4 11.8-16.8 1.8-8.4 9.2-14.8 18.2-14.8 4.8 0 9.2 1.8 12.6 5 2.8-2 6.2-3 9.6-3 8.4 0 15.4 6.2 16.8 14.4 5.2 3.2 8.6 9 8.6 15.2 0 9.8-8 17.8-17.8 17.8z m-29.8-37.4c-3.8 0-6.6 2.8-6.6 6.6v1.2c0 3.2-2.6 5.8-5.8 6-3.2 0-5.6 2.6-5.6 5.8 0 3.2 2.6 5.8 5.8 5.8h42c3.2 0 5.8-2.6 5.8-5.8 0-2.6-1.8-5-4.2-5.6-2.6-0.8-4.4-3-4.4-5.8 0-0.6 0-1.2 0.2-1.6-0.2-2.6-2.4-4.6-5-4.6-2 0-3.8 1.2-4.6 3.2-1 2.4-3.2 4-5.8 3.8-2.6 0-4.8-1.8-5.6-4.2-0.8-2.8-3.4-4.8-6.2-4.8z" fill="#FFFFFF" p-id="2079"></path><path d="M674.4 332h-3.8c1.2-2.6 1.8-5.4 1.8-8.2 0-11.4-9.2-20.8-20.8-20.8-11 0-20 8.6-20.8 19.6-2.8-3.2-7-5-11.4-5-8.2 0-15 6.4-15.6 14.6h-2.2c-9.2 0-16.6 7.4-16.6 16.6s7.4 16.6 16.6 16.6h72.6c9.2 0 16.6-7.4 16.6-16.6 0.2-9.2-7.2-16.8-16.4-16.8z" fill="#FFFFFF" p-id="2080"></path><path d="M674.2 371.4h-72.6c-12.4 0-22.6-10.2-22.6-22.6 0-11.6 8.8-21.2 20-22.4 3-8.6 11-14.8 20.4-14.8 2.6 0 5.4 0.4 7.8 1.4 4.2-9.4 13.6-16 24.4-16 14.8 0 26.8 12 26.8 26.8 0 0.8 0 1.6-0.2 2.6 4.6 0.8 8.8 3 12.2 6.4 4.2 4.4 6.6 10.2 6.4 16.2 0 12.2-10.2 22.4-22.6 22.4z m-72.6-33.2c-5.8 0-10.6 4.8-10.6 10.6s4.8 10.6 10.6 10.6h72.6c5.8 0 10.6-4.8 10.6-10.6 0-3-1-5.6-3-7.6s-4.6-3.2-7.4-3.2h-3.8c-2 0-4-1-5-2.8-1.2-1.8-1.2-3.8-0.4-5.8 0.8-1.8 1.2-3.8 1.2-5.6 0-8.2-6.6-14.8-14.8-14.8-7.8 0-14.2 6.2-14.8 14-0.2 2.4-1.8 4.4-4 5.2-2.2 0.8-4.8 0-6.4-1.8-1.6-1.8-4.2-3-6.8-3-5 0-9.2 4-9.6 9-0.2 3.2-2.8 5.6-6 5.6h-2.4z" fill="#FFFFFF" p-id="2081"></path><path d="M593.541516 497.235384a13 11.4 10.457 1 0 4.138145-22.421324 13 11.4 10.457 1 0-4.138145 22.421324Z" fill="#FFDEF1" p-id="2082"></path><path d="M662.622119 484.267933a13 11.4 10.457 1 0 4.138144-22.421324 13 11.4 10.457 1 0-4.138144 22.421324Z" fill="#FFDEF1" p-id="2083"></path><path d="M282 148.4h571v48.4H282z" fill="#FFB3E2" p-id="2084"></path><path d="M806.4 152.4h46.6v632.6h-46.6z" fill="#FFB3E2" p-id="2085"></path><path d="M269.4 515.2c-3.4 0-6-2.6-6-6 0-0.4-0.4-0.8-0.8-0.8-0.6 0-0.8 0.4-0.8 0.4-1.8 2.8-5.4 3.8-8.2 2-2.8-1.8-3.8-5.4-2-8.2 2.4-4 6.6-6.4 11.2-6.4 7 0 12.8 5.8 12.8 12.8-0.2 3.6-2.8 6.2-6.2 6.2z" fill="#2C3AC4" p-id="2086"></path><path d="M282.8 515.6c-2.6 0-5.2-1.8-5.8-4.6-0.2-0.6-0.4-0.6-0.6-0.8h-0.4c-0.2 0-0.4 0.2-0.6 0.6a6.074 6.074 0 0 1-11.6-3.6c1-3.4 3.4-6.2 6.4-7.8 3-1.6 6.4-1.8 9.8-0.8 4.4 1.4 7.4 4.8 8.6 9.2 0.8 3.2-1.2 6.4-4.4 7.2-0.4 0.6-1 0.6-1.4 0.6zM312.8 471.2c-0.4 0-1 0-1.4-0.2-3.2-0.8-5.2-4-4.4-7.2 1-4.6 4.4-8.4 9-10h0.2c3.4-1 7.2-0.6 10.4 1 3.4 1.8 5.8 4.6 6.8 8 1 3.2-0.8 6.6-4 7.4-3.2 1-6.6-0.8-7.4-4-0.2-0.4-0.4-0.6-0.8-0.8-0.4-0.2-0.8-0.2-1.2-0.2-0.6 0.2-1 0.8-1.2 1.4-0.8 2.8-3.2 4.6-6 4.6z" fill="#2C3AC4" p-id="2087"></path><path d="M327.8 470.4c-3.2 0-5.8-2.6-6-5.8-0.2-3.6 1.2-7.2 3.6-9.8 2.6-2.6 6.2-4.2 10-4.2 5.2 0 9.4 2.4 12 6.8 1.6 2.8 0.8 6.6-2.2 8.2s-6.6 0.8-8.2-2.2c-0.2-0.4-0.6-0.8-1.6-0.8-0.4 0-1 0.2-1.2 0.6-0.2 0.2-0.4 0.6-0.4 1 0.2 3.4-2.4 6.2-5.8 6.2h-0.2z" fill="#2C3AC4" p-id="2088"></path><path d="M802.4 881.6H175.2c-5.6 0-10-4.4-10-10V202c0-5.6 4.4-10 10-10h627.2c5.6 0 10 4.4 10 10v669.6c0 5.6-4.4 10-10 10z m-625.2-12h623.2V204H177.2v665.6z" fill="#2C3AC4" p-id="2089"></path><path d="M763.6 701.6H211.4c-3.4 0-6-2.6-6-6v-440c0-3.4 2.6-6 6-6h552.2c3.4 0 6 2.6 6 6v440c0 3.4-2.6 6-6 6z m-546.2-12h540.2v-428H217.4v428z" fill="#2C3AC4" p-id="2090"></path><path d="M758 616h-71.2c-3.4 0-6-2.6-6-6s2.6-6 6-6H758c3.4 0 6 2.6 6 6s-2.6 6-6 6zM651.6 616h-35.4c-3.4 0-6-2.6-6-6s2.6-6 6-6h35.4c3.4 0 6 2.6 6 6s-2.6 6-6 6zM555.8 616H217c-3.4 0-6-2.6-6-6s2.6-6 6-6h338.8c3.4 0 6 2.6 6 6s-2.6 6-6 6z" fill="#2C3AC4" p-id="2091"></path><path d="M309 323.8m-31.2 0a31.2 31.2 0 1 0 62.4 0 31.2 31.2 0 1 0-62.4 0Z" fill="#E84091" p-id="2092"></path><path d="M309 361c-20.6 0-37.2-16.6-37.2-37.2s16.6-37.2 37.2-37.2 37.2 16.6 37.2 37.2-16.6 37.2-37.2 37.2z m0-62.4c-13.8 0-25.2 11.4-25.2 25.2s11.4 25.2 25.2 25.2 25.2-11.4 25.2-25.2-11.4-25.2-25.2-25.2z" fill="#E84091" p-id="2093"></path><path d="M404.4 616.2c-0.6 0-1 0-1.6-0.2-3.2-1-5-4.2-4.2-7.4 0.4-1.6 11.4-39.2 53.2-57.8 19.2-8.6 22.6-24.6 26.6-43.2 3.6-17.2 7.8-36.4 26.4-49.6 9-6.4 17.6-13.4 26-20.4 25.6-21 49.8-41 81.2-41 39 0 150.4-2 151.4-2h0.2c3.2 0 6 2.6 6 5.8 0 3.4-2.6 6-5.8 6.2-1.2 0-112.6 2-151.8 2-27.2 0-49.8 18.6-73.6 38.2-8.6 7-17.4 14.4-26.6 20.8-14.6 10.4-18 26-21.6 42.4-4 19-8.8 40.6-33.4 51.6-36.4 16.4-46.4 49.8-46.4 50.2-1 2.6-3.4 4.4-6 4.4zM676.4 670.2h-33.2c-3.4 0-6-2.6-6-6s2.6-6 6-6h33.2c3.4 0 6 2.6 6 6s-2.6 6-6 6z" fill="#2C3AC4" p-id="2094"></path><path d="M668.6 493.8c-11.6 0-21.2-9.6-21.2-21.2 0-4.8 1.6-9.4 4.4-12.8 2.2-2.6 6-2.8 8.4-0.8 2.6 2.2 2.8 6 0.8 8.4-1 1.2-1.6 3-1.6 5.2 0 5 4.2 9.2 9.2 9.2 3.4 0 6 2.6 6 6s-2.6 6-6 6z" fill="#2C3AC4" p-id="2095"></path><path d="M675.4 572.6h-14.6c-9.6 0-17.4-7.8-17.4-17.4v-43.6c0-16.4 13.4-29.8 29.8-29.8h2.2c9.6 0 17.4 7.8 17.4 17.4v56.2c0 9.4-7.8 17.2-17.4 17.2z m-2.2-78.8c-9.8 0-17.8 8-17.8 17.8v43.6c0 2.8 2.6 5.4 5.4 5.4h14.6c3 0 5.4-2.2 5.4-5.2v-56.2c0-2.8-2.6-5.4-5.4-5.4h-2.2z" fill="#2C3AC4" p-id="2096"></path><path d="M677.4 670.4l-19.8-0.2c-3.2 0-5.6-2.4-6-5.6l-7.4-97.6c-0.2-1.6 0.4-3.4 1.6-4.6 1.2-1.2 2.8-1.8 4.4-1.8l20.2 0.2c6.6 0 13 2.8 17.4 7.8 4.2 4.8 6.2 11 5.4 17.2l-9.8 79.4c-0.4 3-3 5.2-6 5.2z m-14.2-12.2h9l9.2-74c0.4-2.8-0.6-5.6-2.4-7.8-2-2.4-5.2-3.8-8.4-3.8l-13.8-0.2 6.4 85.8z" fill="#2C3AC4" p-id="2097"></path><path d="M683.8 450.4c-0.4 0-0.8 0-1 0.2 0-3.6-3-6.4-6.6-6.4h-2-16.4c-8.2 0-14.6-4.2-14.6-4.2v13c0 5.4 4.4 9.8 10 9.8h23.4v13.8c0 1.6 1.2 2.8 2.8 2.8h4.6c4 0 7.2-3.2 7.2-7.2v-14.6c-0.2-4-3.4-7.2-7.4-7.2z" fill="#7186FF" p-id="2098"></path><path d="M684 485.4h-4.6c-5 0-8.8-3.8-8.8-8.8v-7.8h-17.4c-8.8 0-16-7-16-15.8V440c0-2.2 1.2-4.2 3.2-5.2s4.2-1 6.2 0.2c0 0 5.2 3.2 11.4 3.2h18.4c4.8 0 9 2.8 11.2 6.6 5.4 1.6 9.6 6.4 9.8 12.4V472c-0.2 7.4-6.2 13.4-13.4 13.4z m-1.4-12h1.4c0.6 0 1.2-0.6 1.2-1.2v-14.4c0-0.6-0.4-1.2-1-1.4-1.2 0.2-2.4 0.2-3.6-0.4-2.2-1-3.8-3.2-3.8-5.6 0-0.2-0.2-0.4-0.6-0.4h-18.4c-3.2 0-6-0.4-8.6-1.2v4c0 2.2 1.8 3.8 4 3.8h23.4c3.4 0 6 2.6 6 6v10.8z m4.4-18.6z m0 0z" fill="#7186FF" p-id="2099"></path><path d="M848.4 803.4h-39.2c-3.4 0-6-2.6-6-6s2.6-6 6-6h37.8V154.2H283.4v45.2c0 3.4-2.6 6-6 6s-6-2.6-6-6V152.6c0-5.8 4.8-10.4 10.6-10.4h566.4c5.8 0 10.6 4.6 10.6 10.4v640.4c0 5.8-4.8 10.4-10.6 10.4z" fill="#2C3AC4" p-id="2100"></path><path d="M596.4 504c-3.4 0-6-2.6-6-6s2.6-6 6-6c5.2 0 9.6-4.2 9.6-9.2 0-1.8-0.4-3.2-1-4.4-1.8-2.8-1-6.6 1.8-8.2 2.8-1.8 6.6-1 8.2 1.8 2 3 3 6.8 3 10.8 0 11.6-9.6 21.2-21.6 21.2zM619.2 670.2h-75.6c-1.8 0-3.6-0.8-4.8-2.4-1.2-1.4-1.6-3.4-1-5.2l21.2-84.4c4-16.6 18.8-28.2 35.8-28.2h14c3 0 5.6 2.4 6 5.4l10.4 108c0.2 1.6-0.4 3.4-1.6 4.6s-2.8 2.2-4.4 2.2z m-68-12h61.4l-9.2-96h-8.6c-11.6 0-21.4 7.8-24.2 19l-19.4 77z" fill="#2C3AC4" p-id="2101"></path><path d="M608 562.2h-19.8c-12.2 0-13.2-7.6-13.2-14.6 0-3.4 2.6-6 6-6s6 2.6 6 6v2.6h15v-12.6c0-3.8 2-6.6 3.6-8.6s2.6-3.4 2.6-6.2c0-5.8-7.8-18.8-16-18.8-1.8 0-3.2 1.4-3.6 2-2 2.6-5.8 3.2-8.4 1-2.6-2-3.2-5.8-1-8.4 3.2-4.2 8-6.8 13.2-6.8 16.4 0 28 20 28 30.8 0 7-3.2 11.2-5.2 13.6-0.4 0.4-0.8 1.2-1 1.4v18.2c-0.2 3.8-2.8 6.4-6.2 6.4zM635 568.6c-1.6 0-3.2-0.6-4.4-2-2.2-2.4-2-6.2 0.4-8.4 10.2-9.2 22.2-20.8 23.6-23.4 1-2.2 4.8-16 7.6-27.6 0.8-3.2 4-5.2 7.2-4.4 3.2 0.8 5.2 4 4.4 7.2-1.4 6-6.6 26-8.6 30.2-2 4.2-15.4 17-26.4 26.8-1 1-2.4 1.6-3.8 1.6z" fill="#2C3AC4" p-id="2102"></path><path d="M626.6 568.4c-1.6 0-3.2-0.6-4.4-2l-18.6-20.6c-0.4-0.4-0.8-1-1-1.6l-12.4-27c-1.4-3 0-6.6 3-8 3-1.4 6.6 0 8 3l12 26.2 18 20c2.2 2.4 2 6.2-0.4 8.4-1.4 1-2.8 1.6-4.2 1.6zM354.8 772h-145.4c-3.4 0-6-2.6-6-6s2.6-6 6-6h145.4c3.4 0 6 2.6 6 6s-2.6 6-6 6zM286.2 803h-76.8c-3.4 0-6-2.6-6-6s2.6-6 6-6h76.8c3.4 0 6 2.6 6 6s-2.6 6-6 6z" fill="#2C3AC4" p-id="2103"></path><path d="M576.8 467v-2c0-5.8 4.2-10.4 19.8-10.4s19.8 4.6 19.8 10.4c0 5.8-4.6 10.4-10.4 10.4h-22.8" fill="#F288CF" p-id="2104"></path><path d="M606 481.4h-22.8v-12H606c2.4 0 4.4-2 4.4-4.4 0-3.6-7.6-4.4-13.8-4.4s-13.8 0.8-13.8 4.4v2h-12v-2c0-7.4 4.4-16.4 25.8-16.4s25.8 9 25.8 16.4c0 9-7.4 16.4-16.4 16.4z" fill="#F288CF" p-id="2105"></path><path d="M583 556c-0.6 0-1.2-0.2-2-0.4l-43.6-14.6c-2.8-1-4.4-3.6-4-6.4 0-0.8 2.6-18.4 15.8-36 7.6-10.2 16-17.6 20.4-21.2 5.8-4.6 9.8-7.2 10-7.4 1.8-1.2 4.2-1.2 6.2-0.2s3.2 3 3.2 5.2V550c0 2-1 3.8-2.4 4.8-1.2 0.8-2.4 1.2-3.6 1.2z m-36.6-24.6l30.6 10.2v-54.6c-4 3.2-11.6 9.8-18.2 18.8-7.4 10-10.8 20-12.4 25.6z" fill="#2C3AC4" p-id="2106"></path><path d="M571.4 486c-2.4 0-5-0.2-8-0.8-10-1.6-14-9.2-13.4-15.6 0.6-7.6 6.8-13 14.6-13 13.6 0 22.8 15.8 23.8 17.6a6 6 0 0 1-1.8 8c-1 0.6-6 3.8-15.2 3.8z m-7-17.2c-2.2 0-2.6 1.4-2.6 2-0.2 2 2.4 2.6 3.6 2.8 3 0.6 5.6 0.6 7.6 0.6-2.6-3-5.8-5.4-8.6-5.4z" fill="#2C3AC4" p-id="2107"></path></svg>